# xmcd
#
# Track frame offsets: 
#        150
#        11191
#        25946
#        43085
#        57324
#        74898
#        94939
#        109835
#        130383
#        156895
#        172569
#        188176
#        201705
#        221358
#        238376
#
# Disc length: 3309 seconds
#
# Revision: 0
# Processed by: cddbd v1.5.2PL0 Copyright (c) Steve Scherf et al.
# Submitted via: ExactAudioCopyFreeDBPlugin 1.0
#
DISCID=e50ceb0f
DTITLE=M.anifest - manifestations
DYEAR=2007
DGENRE=Hip-Hop
TTITLE0=Spell check
TTITLE1=babylon breakdown
TTITLE2=eMcee PSA
TTITLE3=swing low
TTITLE4=gentleman
TTITLE5=manifestations
TTITLE6=she lives
TTITLE7=against the grain
TTITLE8=africa represent
TTITLE9=change gon come
TTITLE10=e.z. does it
TTITLE11=bring me down
TTITLE12=love thang
TTITLE13=street symphony
TTITLE14=soulsound
EXTD=
EXTT0=
EXTT1=
EXTT2=
EXTT3=
EXTT4=
EXTT5=
EXTT6=
EXTT7=
EXTT8=
EXTT9=
EXTT10=
EXTT11=
EXTT12=
EXTT13=
EXTT14=
PLAYORDER=
